<svg version="1.2" baseProfile="tiny-ps" xmlns="http://www.w3.org/2000/svg" viewBox="0 0 2419 2100" width="2419" height="2100">
	<title>endeavour-logo-sans-logotype-svg</title>
	<style>
		tspan { white-space:pre }
		.shp0 { fill: #7f7fff } 
		.shp1 { fill: #ff7f7f } 
		.shp2 { fill: #7f3fbf } 
	</style>
	<g id="layer1">
		<g id="g3201">
			<path id="path3195" class="shp0" d="M1388.15 155.08C1582.02 429.01 2400.67 1490.72 1842.49 1710.22C1582.64 1829.7 397.42 1640.25 414.87 1671.1C330.13 1810.42 262.38 1922.39 262.38 1922.39C262.38 1922.39 1173.33 1963.46 1881.68 1868.47C2889.66 1733.3 1674.51 445.28 1388.15 155.08L1388.15 155.08Z" />
			<path id="path3197" class="shp1" d="M1385.94 154.4C1321.2 163.27 135.48 1618.75 135.48 1618.75C135.48 1618.75 220.7 1642.95 414.87 1671.1C477.92 1622.06 1361.34 131.64 1388.15 155.08C1387.7 154.48 1386.96 154.26 1385.94 154.4L1385.94 154.4Z" />
			<path id="path3199" class="shp2" d="M1387.1 154.55C1346.35 147.92 414.87 1671.1 414.87 1671.1C414.87 1671.1 1260.53 1760.3 1607.24 1754.45C2588.98 1737.86 1614.7 454.7 1388.15 155.08C1387.86 154.78 1387.51 154.62 1387.1 154.55L1387.1 154.55Z" />
		</g>
	</g>
</svg>